<svg width="30" height="44" viewBox="0 0 30 44" fill="none" xmlns="http://www.w3.org/2000/svg">
<g id="Group 2377">
<path id="Vector" d="M29.9365 39.9466C29.9365 41.9256 23.2311 43.5237 14.9683 43.5237C6.70546 43.5237 0 41.9256 0 39.9466C0 38.1784 5.37253 36.7231 12.418 36.4238H17.5185C24.5708 36.7231 29.9365 38.1784 29.9365 39.9466Z" fill="black"/>
<path id="Vector_2" d="M14.9669 0C7.28215 0 1.05273 6.22261 1.05273 13.9074C1.05273 21.5921 14.9669 39.9471 14.9669 39.9471C14.9669 39.9471 28.8743 21.5921 28.8743 13.9074C28.8743 6.22261 22.6517 0 14.9669 0ZM14.9669 23.1155C9.88 23.1155 5.7588 18.9943 5.7588 13.9074C5.7588 8.82047 9.88 4.69926 14.9669 4.69926C20.0538 4.69926 24.175 8.82047 24.175 13.9074C24.175 18.9943 20.0538 23.1155 14.9669 23.1155Z" fill="black"/>
</g>
</svg>
