<svg width="13" height="13" viewBox="0 0 13 13" fill="none" xmlns="http://www.w3.org/2000/svg">
<g id="Group">
<path id="Vector" d="M9.47 9.47C8.6153 10.1215 7.57455 10.4824 6.5 10.5C3 10.5 1 6.5 1 6.5C1.62194 5.34095 2.48457 4.3283 3.53 3.53M5.45 2.62C5.79417 2.53944 6.14653 2.49917 6.5 2.5C10 2.5 12 6.5 12 6.5C11.6965 7.0678 11.3345 7.60237 10.92 8.095M7.56 7.56C7.42268 7.70737 7.25707 7.82558 7.07308 7.90756C6.88908 7.98955 6.69045 8.03363 6.48905 8.03718C6.28764 8.04074 6.08758 8.00369 5.9008 7.92825C5.71403 7.8528 5.54436 7.74051 5.40192 7.59808C5.25949 7.45564 5.1472 7.28597 5.07175 7.0992C4.99631 6.91242 4.95926 6.71236 4.96282 6.51095C4.96637 6.30955 5.01045 6.11092 5.09244 5.92692C5.17442 5.74293 5.29263 5.57732 5.44 5.44M1 1L12 12" stroke="#898989" stroke-linecap="round" stroke-linejoin="round"/>
</g>
</svg>
